<?xml version="1.0" encoding="utf-8"?>
<!-- Generator: Adobe Illustrator 19.0.1, SVG Export Plug-In . SVG Version: 6.00 Build 0)  -->
<!DOCTYPE svg PUBLIC "-//W3C//DTD SVG 1.1//EN" "http://www.w3.org/Graphics/SVG/1.1/DTD/svg11.dtd">
<svg version="1.1" id="Layer_1" xmlns="http://www.w3.org/2000/svg" xmlns:xlink="http://www.w3.org/1999/xlink" x="0px" y="0px"
	 width="612px" height="612px" viewBox="0 91 612 612" style="enable-background:new 0 91 612 612;" xml:space="preserve">
<style type="text/css">
	.st0{fill:#FFFFFF;}
</style>
<g>
	<path class="st0" d="M262.7,385.4c1.7,0.9,2.9,1.4,4,1.7c25.5,10.9,39.6,31,43.3,58.3c2.6,17.8,0.9,35.6-6.3,52.2
		c-13.2,29.6-35.6,48.2-67.7,53.9c-14.1,2.6-28.1,3.7-42.2,3.7H52.6c-0.9-3.2-1.1-308.8-0.3-316.2l3.4-0.3h148.4
		c16.6,0,33,2,48.5,8.3c29.8,12.1,45.3,34.1,47.9,66c0.9,9.2,0.3,18.4-1.7,27.3c-3.4,16.9-12.3,30.1-27,39.3l-4.3,2.6
		C266.2,383.5,264.7,384.2,262.7,385.4L262.7,385.4z M125,500.2c1.4,0,2.3,0.3,3.2,0.3h64c7.2,0,14.3-0.6,21.2-2
		c15.8-3.7,25.8-12.9,29.6-29l0.9-4.3c0.9-8.6,1.1-17.2-2-25.5c-4.3-11.2-12.9-17.2-24.1-20.4c-8-2.3-16.1-2.9-24.4-2.9h-65.1
		l-3.2,0.3v83.5H125z M125,363.6h53.9c6.9,0,13.8,0,20.7-0.3c8.3-0.3,16.1-2.3,23.5-6.3c6.9-3.4,11.2-9.2,13.2-16.4
		c2-6.9,2-13.5,0.9-20.4c-2-12.3-9.2-19.8-21.2-22.7c-9.8-2.3-19.8-3.4-29.8-3.4h-57.4l-3.4,0.3C125,317.5,125,340.1,125,363.6
		L125,363.6z M559.7,448.8H395.3c-0.9,3.4,0,6.3,0.6,9.2c0.6,4,1.4,8,2.6,12.1c6,18.9,19.5,29.8,38.5,33.9
		c8.6,1.7,17.5,1.7,26.4,0.3c13.5-2.3,23.8-9.5,30.7-21.2c1.7-2.9,3.4-3.7,6.9-3.7c16.9,0.3,34.1,0,51.1,0h4.6
		c-0.9,8.3-3.7,15.5-7.7,22.4c-11.2,18.1-25.8,32.4-45.3,41.3c-12.6,5.7-26.1,8.6-39.9,9.8c-16.9,1.4-33.6,0.3-49.9-4.3
		c-17.5-4.9-33-13.5-46.8-25.3c-13.5-11.8-21.5-26.7-26.1-43.6c-5.2-18.9-6.3-38.2-5.2-57.4c0.9-14.1,3.2-27.8,8-41
		c13.2-35.3,38.7-56.8,75.2-64.9c21.2-4.9,42.5-4,63.7,1.1c31.3,7.7,52.8,27,66.3,55.7c6,13.2,9.5,27,10.3,41.3
		c0.6,10.6,0.6,21.5,0.9,32.1C560,446.8,560,447.4,559.7,448.8z M498.6,409.2c-0.3-3.2-0.6-6-1.1-8.9c-3.7-19.2-15.2-31.6-33.9-37
		c-6.9-2-14.1-2.3-21.2-1.7c-18.1,1.1-31.3,9.8-39.3,26.1c-2.9,5.7-4.6,11.5-5.7,17.8c-0.3,1.1-0.3,2.6-0.6,4
		C430.9,409.2,464.4,409.2,498.6,409.2z M510.6,283.5H384.1c-0.9-2.9-1.1-26.7-0.3-31.3h126.6C510.6,262.6,510.6,272.9,510.6,283.5z
		"/>
</g>
</svg>
