<?xml version="1.0" encoding="utf-8"?>
<!-- Generator: Adobe Illustrator 19.2.1, SVG Export Plug-In . SVG Version: 6.00 Build 0)  -->
<!DOCTYPE svg PUBLIC "-//W3C//DTD SVG 1.1//EN" "http://www.w3.org/Graphics/SVG/1.1/DTD/svg11.dtd" [
	<!ENTITY ns_extend "http://ns.adobe.com/Extensibility/1.0/">
	<!ENTITY ns_ai "http://ns.adobe.com/AdobeIllustrator/10.0/">
	<!ENTITY ns_graphs "http://ns.adobe.com/Graphs/1.0/">
	<!ENTITY ns_vars "http://ns.adobe.com/Variables/1.0/">
	<!ENTITY ns_imrep "http://ns.adobe.com/ImageReplacement/1.0/">
	<!ENTITY ns_sfw "http://ns.adobe.com/SaveForWeb/1.0/">
	<!ENTITY ns_custom "http://ns.adobe.com/GenericCustomNamespace/1.0/">
	<!ENTITY ns_adobe_xpath "http://ns.adobe.com/XPath/1.0/">
]>
<svg version="1.1" id="xdc" xmlns:x="&ns_extend;" xmlns:i="&ns_ai;" xmlns:graph="&ns_graphs;"
	 xmlns="http://www.w3.org/2000/svg" xmlns:xlink="http://www.w3.org/1999/xlink" x="0px" y="0px" width="200.7px" height="72.3px"
	 viewBox="0 0 200.7 72.3" style="enable-background:new 0 0 200.7 72.3;" xml:space="preserve">
<metadata>
	<sfw  xmlns="&ns_sfw;">
		<slices></slices>
		<sliceSourceBounds  bottomLeftOrigin="true" height="72.3" width="200.7" x="0" y="0"></sliceSourceBounds>
	</sfw>
</metadata>
<path d="M39.5,63.6c-9.1,5.6-21.4,6.9-26.5,0.9C7.4,57.4,28.4,56.6,39.5,63.6z M98.3,36.2c13.2,24.1-9.8,33.7-38.8,26.8
	c1.8-2.4,4.9-10,13.3-29C81.3,35.5,89.8,36.2,98.3,36.2z M98,35.3c-11.1-0.4-17-2-24.2-3.3c1.8-4.2,3.7-8.2,5.3-12
	C87.1,23.8,94.1,29.8,98,35.3z M59.9,25.5c-13-8.9-9.1-12.4,4.6-10C63,18.3,61.4,21.8,59.9,25.5z M121.5,34.8
	c8.2-11.7,26.7-20.1,40.9-20.1C183.3,14.7,149.9,35.1,121.5,34.8L121.5,34.8z M105.5,3c-14.6-5.3-32.1-4-38.4,7.5
	c-35.6-9.7-42.7,6.6-9,19.1c-4.4,10-9.3,21.3-14.6,29C-9.6,44.8-13.7,72.3,29.1,72.3c14.2,0,20.5-2.2,24.8-4.7
	c26.5,6.4,44.9,6.4,56.5-2.9c30.2,19,59.9-9.3,77.9-2c14.6,5.1,19.3-9.5-2.8-9.5c-17.6,0-31.1,11.7-43.9,11.7
	c-20,0-30.5-12.8-20.5-29.2c41.1-2.2,86-27.2,46.3-27.2c-18.8,0-46,8.8-58.4,23.3c-6.7-6.6-16.7-11.8-27.9-16.2
	c0.1-0.1,0.2-0.2,0.2-0.4C86,4.9,95.1,3.8,105.1,4.6c0.5,0.1,0.9-0.2,1-0.7C106.2,3.5,105.9,3.1,105.5,3z"/>
</svg>
